# xmcd CD database file
#
# Track frame offsets:
#	150
#	17758
#	32920
#	49108
#	72785
#
# Disc length: 2040 seconds
#
# Revision: 3
# Processed by: cddbd v1.4PL0 Copyright (c) Steve Scherf et al.
# Submitted via: CDex 1.50Beta7
#
DISCID=3b07f605
DTITLE=Die Ärzte - 1/2 Lovesong
DYEAR=1998
DGENRE=Rock
TTITLE0=1/2 Lovesong
TTITLE1=Ein Lied über Zensur
TTITLE2=Schlimm
TTITLE3=Danke für jeden guten Morgen
TTITLE4=1/2 Lovesong-Video
EXTD=YEAR: 1998
EXTT0=
EXTT1=
EXTT2=
EXTT3=
EXTT4=
PLAYORDER=
